<?xml version="1.0" encoding="UTF-8" standalone="no"?>
<svg
   xmlns:dc="http://purl.org/dc/elements/1.1/"
   xmlns:cc="http://creativecommons.org/ns#"
   xmlns:rdf="http://www.w3.org/1999/02/22-rdf-syntax-ns#"
   xmlns:svg="http://www.w3.org/2000/svg"
   xmlns="http://www.w3.org/2000/svg"
   xmlns:sodipodi="http://sodipodi.sourceforge.net/DTD/sodipodi-0.dtd"
   xmlns:inkscape="http://www.inkscape.org/namespaces/inkscape"
   id="svg8"
   version="1.1"
   viewBox="0 0 300 200"
   height="200mm"
   width="300mm"
   sodipodi:docname="laser_cutted_pieces.svg"
   inkscape:version="0.92.5 (2060ec1f9f, 2020-04-08)">
  <sodipodi:namedview
     pagecolor="#ffffff"
     bordercolor="#666666"
     borderopacity="1"
     objecttolerance="10"
     gridtolerance="10"
     guidetolerance="10"
     inkscape:pageopacity="0"
     inkscape:pageshadow="2"
     inkscape:window-width="1366"
     inkscape:window-height="705"
     id="namedview52"
     showgrid="false"
     inkscape:zoom="0.64505854"
     inkscape:cx="566.92913"
     inkscape:cy="377.95276"
     inkscape:window-x="-8"
     inkscape:window-y="-8"
     inkscape:window-maximized="1"
     inkscape:current-layer="layer4"
     inkscape:document-units="mm"
     inkscape:snap-bbox="true"
     inkscape:bbox-paths="true"
     inkscape:bbox-nodes="true"
     inkscape:snap-bbox-edge-midpoints="true"
     inkscape:snap-bbox-midpoints="true"
     inkscape:object-paths="true"
     inkscape:snap-intersection-paths="true"
     inkscape:snap-smooth-nodes="true"
     inkscape:snap-midpoints="true"
     inkscape:snap-object-midpoints="true"
     inkscape:snap-center="true"
     inkscape:snap-page="true"
     inkscape:snap-global="true"
     inkscape:snap-nodes="true" />
  <defs
     id="defs2" />
  <metadata
     id="metadata5">
    <rdf:RDF>
      <cc:Work
         rdf:about="">
        <dc:format>image/svg+xml</dc:format>
        <dc:type
           rdf:resource="http://purl.org/dc/dcmitype/StillImage" />
        <dc:title></dc:title>
      </cc:Work>
    </rdf:RDF>
  </metadata>
  <g
     inkscape:groupmode="layer"
     id="layer4"
     inkscape:label="laser_cutted_PMMA"
     style="display:inline"
     transform="translate(0,-100)">
    <path
       id="path4713"
       style="opacity:1;fill:none;fill-opacity:1;fill-rule:nonzero;stroke:#00f800;stroke-width:0.2;stroke-linecap:round;stroke-linejoin:round;stroke-miterlimit:4.1875;stroke-dasharray:none;stroke-dashoffset:0;stroke-opacity:1"
       d="m 49.250098,282.74931 h 7.8 c 0.554,0 1,-0.446 1,-1 0,-0.554 -0.446,-1 -1,-1 h -7.8 c -0.554,0 -1,0.446 -1,1 0,0.554 0.446,1 1,1 z m -28.74998,2.3 h 11 v -4.4 h -11 z M 4.0001487,277.99932 a 15,15 0 0 0 15.0000003,15 15,15 0 0 0 15,-15 15,15 0 0 0 -15,-15 15,15 0 0 0 -15.0000003,15 z m 43.0000003,0 a 15,15 0 0 0 15,15 15,15 0 0 0 15,-15 15,15 0 0 0 -15,-15 15,15 0 0 0 -15,15 z"
       inkscape:connector-curvature="0" />
    <circle
       r="15"
       cy="277.99991"
       cx="146.00188"
       id="circle6418"
       style="display:inline;opacity:1;vector-effect:none;fill:none;fill-opacity:1;fill-rule:evenodd;stroke:#00ff00;stroke-width:0.26458332;stroke-linecap:butt;stroke-linejoin:miter;stroke-miterlimit:4;stroke-dasharray:none;stroke-dashoffset:0;stroke-opacity:1" />
    <path
       id="path5151"
       style="display:inline;fill:none;fill-opacity:1;stroke:#0000ff;stroke-width:0.25164011px;stroke-linecap:round;stroke-linejoin:round;stroke-miterlimit:4;stroke-dasharray:none;stroke-opacity:1"
       d="m 77.055011,217.88706 c 0.9727,-0.73944 1.9454,-2.4648 1.9454,-3.45071 0,-1.97183 -1.9454,-3.94366 -4.13398,-4.43662 -0.48635,0 -0.72952,0 -1.21587,0.49296 -1.21587,0.98592 -0.72953,1.97183 0.72952,2.46479 0.72953,0.24648 1.21588,0.49295 1.21588,0.98591 0.48636,0.49296 0.48636,0.73944 0,1.23239 -0.24319,0.49296 -0.48635,0.49296 -1.9454,0.49296 -1.45906,0 -2.18859,0.24648 -2.67494,0.98592 -0.24317,0.24648 0,1.2324 0.24318,1.72535 0.48635,0.49296 0.72953,0.49296 2.67494,0.24648 2.18858,0 2.18858,0 3.16127,-0.73943 z m -7.53843,9.11971 c 1.45904,-0.98591 2.18857,-2.2183 2.18857,-3.94365 0,-0.98592 -0.72953,-2.46479 -1.45905,-3.20423 -1.21587,-0.98592 -1.70222,-0.98592 -10.69969,-0.98592 -9.24066,0 -9.24066,0 -9.24066,-1.47887 0,-1.47888 0,-1.47888 8.99748,-1.47888 5.10668,0 8.51113,0 9.24065,-0.24648 0.9727,-0.24648 2.43174,-1.47887 2.67492,-2.46478 0.72953,-1.47888 0.24317,-3.4507 -0.72952,-4.6831 -1.21588,-1.23239 -3.64762,-1.72536 -4.37715,-0.98591 -0.72952,1.23239 -0.24317,2.21831 1.45905,2.71126 0.72953,0.24648 0.9727,0.24648 0.9727,0.98592 0,0.73943 0,0.98591 -0.24317,1.23239 -0.48635,0.49296 -1.21588,0.49296 -9.48383,0.49296 -8.99747,0 -9.24064,-0.24648 -10.45653,-0.73944 -1.9454,-0.73943 -3.8908,-2.71126 -4.8635,-4.68309 -0.48635,-1.97184 -0.72952,-4.6831 0,-6.40846 0.72953,-1.97183 2.43175,-3.69718 4.37715,-4.68309 1.45906,-0.73944 1.70224,-0.73944 3.64763,-0.73944 1.70223,0 2.18858,0 3.40446,0.49296 1.9454,0.98591 3.89079,2.95774 4.62032,4.68309 l 0.48635,1.23239 0.72952,-0.24648 c 0.48635,-0.24648 1.21588,-0.49295 2.18858,-0.49295 1.9454,0 3.16127,0.49295 4.37715,1.97183 0.48635,0.49296 0.9727,0.98592 1.21587,0.98592 0.24318,0 0.9727,0.24648 1.70222,0.49296 0.72952,0.49295 1.21587,0.73943 1.21587,0.49295 0.24318,0 -0.97269,-2.71127 -1.45904,-3.45071 -1.70222,-2.2183 -4.13397,-3.4507 -6.56572,-3.4507 h -1.9454 l -0.72953,-1.23239 c -1.9454,-2.71126 -5.83619,-4.6831 -9.24065,-4.6831 -5.10668,0 -9.727,3.69719 -11.18605,9.11971 -0.72952,2.71128 -0.24317,5.17606 1.21587,8.13382 0.9727,1.97182 3.16128,3.94365 4.8635,4.92957 1.21588,0.49295 1.21588,0.73943 1.21588,0.98591 -0.48635,0.73945 -0.48635,2.4648 0,3.45071 0.48635,0.98592 1.70223,2.21832 2.9181,2.46479 0.48635,0 3.89081,0.24648 8.99748,0.24648 7.29525,0 8.26795,0 8.7543,0.24648 0.72952,0.98592 0,2.46479 -0.9727,2.46479 -0.24318,0 -0.72953,0.24648 -0.9727,0.49295 -0.9727,0.98592 -0.24318,2.46479 1.21587,2.46479 0.24318,0 1.21588,-0.24648 1.9454,-0.49296 z"
       inkscape:connector-curvature="0" />
    <path
       style="color:#000000;font-style:normal;font-variant:normal;font-weight:normal;font-stretch:normal;font-size:medium;line-height:normal;font-family:sans-serif;font-variant-ligatures:normal;font-variant-position:normal;font-variant-caps:normal;font-variant-numeric:normal;font-variant-alternates:normal;font-feature-settings:normal;text-indent:0;text-align:start;text-decoration:none;text-decoration-line:none;text-decoration-style:solid;text-decoration-color:#000000;letter-spacing:normal;word-spacing:normal;text-transform:none;writing-mode:lr-tb;direction:ltr;text-orientation:mixed;dominant-baseline:auto;baseline-shift:baseline;text-anchor:start;white-space:normal;shape-padding:0;clip-rule:nonzero;display:inline;overflow:visible;visibility:visible;opacity:1;isolation:auto;mix-blend-mode:normal;color-interpolation:sRGB;color-interpolation-filters:linearRGB;solid-color:#000000;solid-opacity:1;vector-effect:none;fill:none;fill-opacity:1;fill-rule:evenodd;stroke:#ff0000;stroke-width:0.2;stroke-linecap:round;stroke-linejoin:round;stroke-miterlimit:4;stroke-dasharray:none;stroke-dashoffset:0;stroke-opacity:1;color-rendering:auto;image-rendering:auto;shape-rendering:auto;text-rendering:auto;enable-background:accumulate"
       d="m 19.000057,262.00008 c -8.817292,0 -15.9994942,7.18285 -16.000057,16.00006 0,6.33473 3.7184398,11.78041 9.087817,14.37484 0.863148,0.41722 1.411918,1.29127 1.412317,2.24999 V 297 h 53.999805 v -2.37503 c 5.29e-4,-0.95872 0.549169,-1.83277 1.412316,-2.24999 5.369378,-2.59443 9.087816,-8.04011 9.087816,-14.37484 -5.29e-4,-8.81721 -7.182768,-16.00006 -16.000055,-16.00006 -8.080121,0 -14.767107,6.05646 -15.832108,13.83791 -0.170029,1.23838 -1.228402,2.16083 -2.478403,2.16009 h -6.380487 c -1.24926,-2.4e-4 -2.306926,-0.92245 -2.476852,-2.16009 -1.065004,-7.78145 -7.751988,-13.83791 -15.832109,-13.83791 z m 37.000326,10.49911 h 2.999816 v 2.99982 h -2.999816 z m -35.500159,7.10136 h 10.999845 c 0.55222,1.1e-4 0.999848,0.44773 0.999938,0.99994 v 4.39973 c -9e-5,0.55221 -0.447718,0.99986 -0.999938,0.99994 H 20.500224 c -0.552241,-8e-5 -0.99986,-0.44773 -0.999939,-0.99994 v -4.39973 c 7.9e-5,-0.55221 0.447698,-0.99983 0.999939,-0.99994 z m 28.749664,0.14883 h 7.800041 c 1.090631,0 1.99988,0.90924 1.99988,1.99988 0,1.09064 -0.909249,1.99988 -1.99988,1.99988 h -7.800041 c -1.090623,0 -1.999877,-0.90924 -1.999877,-1.99988 0,-1.09064 0.909254,-1.99988 1.999877,-1.99988 z"
       id="path1016"
       inkscape:connector-curvature="0" />
    <path
       style="color:#000000;font-style:normal;font-variant:normal;font-weight:normal;font-stretch:normal;font-size:medium;line-height:normal;font-family:sans-serif;font-variant-ligatures:normal;font-variant-position:normal;font-variant-caps:normal;font-variant-numeric:normal;font-variant-alternates:normal;font-feature-settings:normal;text-indent:0;text-align:start;text-decoration:none;text-decoration-line:none;text-decoration-style:solid;text-decoration-color:#000000;letter-spacing:normal;word-spacing:normal;text-transform:none;writing-mode:lr-tb;direction:ltr;text-orientation:mixed;dominant-baseline:auto;baseline-shift:baseline;text-anchor:start;white-space:normal;shape-padding:0;clip-rule:nonzero;display:inline;overflow:visible;visibility:visible;opacity:1;isolation:auto;mix-blend-mode:normal;color-interpolation:sRGB;color-interpolation-filters:linearRGB;solid-color:#000000;solid-opacity:1;vector-effect:none;fill:none;fill-opacity:1;fill-rule:evenodd;stroke:#ff0000;stroke-width:0.2;stroke-linecap:round;stroke-linejoin:round;stroke-miterlimit:4;stroke-dasharray:none;stroke-dashoffset:0;stroke-opacity:1;color-rendering:auto;image-rendering:auto;shape-rendering:auto;text-rendering:auto;enable-background:accumulate"
       d="m 146.00321,262.00008 c -3.72053,-0.009 -7.41327,1.34074 -10.25106,3.74705 -4.00897,3.32258 -6.21409,8.68468 -5.66787,13.8653 0.48044,5.16176 3.71168,9.92484 8.26255,12.37909 0.92703,0.41092 1.91759,1.01438 2.10013,2.10582 0.1118,0.96112 0.0327,1.93542 0.0563,2.90266 h 10.99984 v -1.89807 c -0.0919,-1.02639 0.30373,-2.13526 1.25419,-2.64324 3.27999,-1.54051 6.01268,-4.21394 7.61814,-7.45794 h 3.62613 a 2.0002,2.0002 0 0 0 2.0004,-2.00041 v -1.80041 a 2.0002,2.0002 0 0 0 -2.0004,-2.00038 h -2.04225 c 0.27593,-3.89935 -0.91612,-7.90025 -3.33416,-10.98434 -2.95605,-3.86716 -7.74967,-6.24683 -12.62197,-6.21513 z m -1.00149,16.5995 h 7.00009 c 0.277,0 0.50023,0.22323 0.50023,0.50022 v 0.49972 1.10019 0.49972 h 11.50007 v 1.80041 h -31.00018 v -1.80041 h 11.50008 v -0.49972 -1.10019 -0.49972 c 0,-0.27699 0.22271,-0.50022 0.49971,-0.50022 z"
       id="path1045"
       inkscape:connector-curvature="0" />
    <rect
       y="279.04941"
       x="14.500149"
       height="12"
       width="47.999969"
       id="rect1063"
       style="opacity:1;fill:none;fill-opacity:0.47959188;fill-rule:evenodd;stroke:#000000;stroke-width:0.20000002;stroke-linecap:round;stroke-linejoin:round;stroke-miterlimit:4;stroke-dasharray:none;stroke-dashoffset:0;stroke-opacity:1" />
    <text
       xml:space="preserve"
       style="font-style:normal;font-variant:normal;font-weight:normal;font-stretch:normal;font-size:7.05555534px;line-height:14.11111069px;font-family:Tangerine;-inkscape-font-specification:Tangerine;text-align:start;letter-spacing:0px;word-spacing:0px;text-anchor:start;stroke-width:0.26458332"
       x="366.50504"
       y="157.1371"
       id="text1153"><tspan
         sodipodi:role="line"
         id="tspan1151"
         x="366.50504"
         y="165.95654"
         style="stroke-width:0.26458332" /></text>
    <path
       style="display:inline;opacity:1;fill:none;fill-opacity:1;fill-rule:evenodd;stroke:#ff0000;stroke-width:0.19999996;stroke-linecap:round;stroke-linejoin:miter;stroke-miterlimit:4;stroke-dasharray:none;stroke-dashoffset:0;stroke-opacity:1;paint-order:stroke fill markers"
       d="M 9.0378741,123.99966 C 5.7674342,123.99966 3,126.76154 3,130.02514 V 230.97505 C 3,234.23865 5.7674342,237 9.0378741,237 H 109.96246 c 3.27043,0 6.03788,-2.76135 6.03788,-6.02495 V 130.02514 c 0,-3.2636 -2.76745,-6.02548 -6.03788,-6.02548 z m 3.4623209,5.00022 c 2.48527,1e-5 4.499978,2.01471 4.499984,4.49998 -1.1e-5,2.48527 -2.014718,4.49997 -4.499984,4.49998 -2.48527,-1e-5 -4.4999725,-2.01471 -4.4999836,-4.49998 5e-6,-2.48527 2.0147096,-4.49997 4.4999836,-4.49998 z m 93.999945,0 c 2.48527,1e-5 4.49998,2.01471 4.49998,4.49998 0,2.48527 -2.01471,4.49997 -4.49998,4.49998 -2.48527,-1e-5 -4.49997,-2.01471 -4.49998,-4.49998 1e-5,-2.48527 2.01471,-4.49997 4.49998,-4.49998 z m -84.500266,18.32497 c 1.337398,0 2.675288,1.06977 2.675288,2.67478 0,1.33751 -1.33789,2.67477 -2.675288,2.67477 -1.60484,0 -2.674772,-1.33726 -2.674773,-2.67477 0,-1.60501 1.069933,-2.67478 2.674773,-2.67478 z m 75.000071,0 c 1.337369,0 2.67529,1.06977 2.67529,2.67478 0,1.33751 -1.337921,2.67477 -2.67529,2.67477 -1.60484,0 -2.67477,-1.33726 -2.67477,-2.67477 0,-1.60501 1.06993,-2.67478 2.67477,-2.67478 z m -70.499572,6.67505 h 65.999589 c 1.108001,0 2.000396,0.8924 2.000396,2.0004 v 18.99935 c 0,1.108 -0.892395,1.99988 -2.000396,1.99988 H 26.500373 c -1.107999,0 -1.999877,-0.89188 -1.999877,-1.99988 V 156.0003 c 0,-1.10801 0.891878,-2.0004 1.999877,-2.0004 z m -4.500499,24.32513 c 1.337398,0 2.675288,1.06978 2.675288,2.67477 0,1.33753 -1.33789,2.67477 -2.675288,2.67477 -1.60484,0 -2.674772,-1.33724 -2.674773,-2.67477 0,-1.60499 1.069933,-2.67477 2.674773,-2.67477 z m 75.000071,0 c 1.337369,0 2.67529,1.06978 2.67529,2.67477 0,1.33753 -1.337921,2.67477 -2.67529,2.67477 -1.60484,0 -2.67477,-1.33724 -2.67477,-2.67477 0,-1.60499 1.06993,-2.67477 2.67477,-2.67477 z m -84.49975,44.67479 c 2.48527,1e-5 4.499978,2.01472 4.499984,4.49999 -1.1e-5,2.48527 -2.014718,4.49997 -4.499984,4.49998 -2.48527,-1e-5 -4.4999725,-2.01471 -4.4999836,-4.49998 5e-6,-2.48527 2.0147096,-4.49998 4.4999836,-4.49999 z m 93.999945,0 c 2.48527,1e-5 4.49998,2.01472 4.49998,4.49999 0,2.48527 -2.01471,4.49997 -4.49998,4.49998 -2.48527,-1e-5 -4.49997,-2.01471 -4.49998,-4.49998 1e-5,-2.48527 2.01471,-4.49998 4.49998,-4.49999 z"
       id="path2744"
       inkscape:connector-curvature="0" />
    <path
       id="rect2746"
       style="opacity:1;fill:none;fill-opacity:0.47959188;fill-rule:evenodd;stroke:#00ff00;stroke-width:0.2;stroke-linecap:round;stroke-linejoin:round;stroke-miterlimit:4;stroke-dasharray:none;stroke-dashoffset:0;stroke-opacity:1"
       d="m 12.500418,133.49973 h 93.999992 v 94 H 12.500418 Z m 84.500085,46.40024 c 0.55,0 1.10005,0.43982 1.10005,1.09982 0,0.55001 -0.55005,1.10005 -1.10005,1.10005 -0.66,0 -1.10006,-0.55004 -1.10006,-1.10005 0,-0.66 0.44006,-1.09982 1.10006,-1.09982 z m -75.00008,0 c 0.55001,0 1.10006,0.43982 1.10006,1.09982 0,0.55001 -0.55005,1.10005 -1.10006,1.10005 -0.66,0 -1.10005,-0.55004 -1.10005,-1.10005 0,-0.66 0.44005,-1.09982 1.10005,-1.09982 z m 75.00008,-31.00018 c 0.55,0 1.10005,0.44005 1.10005,1.10006 0,0.55 -0.55005,1.09982 -1.10005,1.09982 -0.66,0 -1.10006,-0.54982 -1.10006,-1.09982 0,-0.66001 0.44006,-1.10006 1.10006,-1.10006 z m -75.00008,0 c 0.55001,0 1.10006,0.44005 1.10006,1.10006 0,0.55 -0.55005,1.09982 -1.10006,1.09982 -0.66,0 -1.10005,-0.54982 -1.10005,-1.09982 0,-0.66001 0.44005,-1.10006 1.10005,-1.10006 z"
       inkscape:connector-curvature="0" />
    <path
       id="rect1409"
       style="opacity:1;fill:none;fill-opacity:1;fill-rule:evenodd;stroke:#0000ff;stroke-width:0.2;stroke-linecap:round;stroke-linejoin:round;stroke-miterlimit:4;stroke-dasharray:none;stroke-dashoffset:0;stroke-opacity:1"
       d="m 70.000045,280.99996 v 10.00043 H 51.500397 v 1.99985 h 16.602604 c 0.220334,-0.25725 0.492964,-0.47238 0.809254,-0.62526 0.816124,-0.39436 1.593374,-0.85545 2.325955,-1.37459 h -0.0021 0.0026 c 3.305638,-2.34299 5.682165,-5.88812 6.471439,-9.9999 z M 50.914903,266.49955 c -0.317939,0.30768 -0.622901,0.62889 -0.914672,0.96171 v 5.03793 h 15.000118 v -5.99964 z m 5.08548,8.99996 v 2.4996 h 2.999816 v -2.4996 z"
       inkscape:connector-curvature="0" />
    <path
       style="display:inline;opacity:1;fill:none;fill-opacity:1;fill-rule:nonzero;stroke:#ff0000;stroke-width:0.2;stroke-linecap:round;stroke-linejoin:round;stroke-miterlimit:4.1875;stroke-dasharray:none;stroke-dashoffset:0;stroke-opacity:1"
       d="m 297.00033,248.99982 h -18.50038 v 12.00043 H 260 V 297 h 37.00033 z"
       id="path2257"
       inkscape:connector-curvature="0"
       sodipodi:nodetypes="ccccccc" />
    <path
       transform="translate(0,-1.0833333e-6)"
       style="display:inline;fill:none;stroke:#ff0000;stroke-width:0.25164011px;stroke-linecap:round;stroke-linejoin:round;stroke-miterlimit:4;stroke-dasharray:none;stroke-opacity:1"
       d="m 156,185.00016 h 0.99994 36.50113 l 3.49953,-3.49953 V 106.50056 L 193.50004,103 H 156.99994 156 Z m 3.40031,-3.50004 c 0,-0.96002 0.79991,-1.5999 1.59991,-1.5999 0.96,0 1.5999,0.63988 1.5999,1.5999 0,0.8 -0.6399,1.5999 -1.5999,1.5999 -0.8,0 -1.59991,-0.7999 -1.59991,-1.5999 z m 0,-75.00007 c 0,-0.96 0.79991,-1.59991 1.59991,-1.59991 0.96,0 1.5999,0.63991 1.5999,1.59991 0,0.80001 -0.6399,1.60042 -1.5999,1.60042 -0.8,0 -1.59991,-0.80041 -1.59991,-1.60042 z m 31.00018,75.00007 c 0,-0.96 0.7999,-1.5999 1.5999,-1.5999 0.96001,0 1.5999,0.6399 1.5999,1.5999 0,0.8 -0.63989,1.5999 -1.5999,1.5999 -0.8,0 -1.5999,-0.7999 -1.5999,-1.5999 z m 0,-75.00007 c 0,-0.96 0.7999,-1.59991 1.5999,-1.59991 0.96001,0 1.5999,0.63991 1.5999,1.59991 0,0.80001 -0.63989,1.60042 -1.5999,1.60042 -0.8,0 -1.5999,-0.80041 -1.5999,-1.60042 z"
       id="path1409"
       inkscape:connector-curvature="0" />
    <text
       transform="translate(0,-1.0833333e-6)"
       xml:space="preserve"
       style="font-style:normal;font-variant:normal;font-weight:normal;font-stretch:normal;font-size:7.05555534px;line-height:7.05555534px;font-family:Calibri;-inkscape-font-specification:Calibri;text-align:start;letter-spacing:0px;word-spacing:0px;text-anchor:start;display:inline;stroke-width:0.26458332"
       x="239.12881"
       y="111.73221"
       id="text390"><tspan
         sodipodi:role="line"
         id="tspan388"
         x="239.12881"
         y="111.73221"
         style="line-height:7.05555534px;stroke-width:0.26458332">red : cut</tspan><tspan
         sodipodi:role="line"
         x="239.12881"
         y="118.78777"
         style="line-height:7.05555534px;stroke-width:0.26458332"
         id="tspan400" /><tspan
         sodipodi:role="line"
         x="239.12881"
         y="125.84332"
         style="line-height:7.05555534px;stroke-width:0.26458332"
         id="tspan392">blue : engrave</tspan><tspan
         sodipodi:role="line"
         x="239.12881"
         y="132.89888"
         style="line-height:7.05555534px;stroke-width:0.26458332"
         id="tspan394" /><tspan
         sodipodi:role="line"
         x="239.12881"
         y="139.95444"
         style="line-height:7.05555534px;stroke-width:0.26458332"
         id="tspan402">black : mark</tspan><tspan
         sodipodi:role="line"
         x="239.12881"
         y="147.00998"
         style="line-height:7.05555534px;stroke-width:0.26458332"
         id="tspan396" /><tspan
         sodipodi:role="line"
         x="239.12881"
         y="154.06554"
         style="line-height:7.05555534px;stroke-width:0.26458332"
         id="tspan404">green : do nothing, </tspan><tspan
         sodipodi:role="line"
         x="239.12881"
         y="161.12109"
         style="line-height:7.05555534px;stroke-width:0.26458332"
         id="tspan406">for construcion</tspan></text>
    <text
       xml:space="preserve"
       style="font-style:normal;font-variant:normal;font-weight:normal;font-stretch:normal;font-size:7.05555534px;line-height:7.05555534px;font-family:Calibri;-inkscape-font-specification:Calibri;text-align:start;letter-spacing:0px;word-spacing:0px;text-anchor:start;display:inline;stroke-width:0.26458332"
       x="152.99324"
       y="193.04918"
       id="text412"><tspan
         sodipodi:role="line"
         id="tspan410"
         x="152.99324"
         y="193.04918"
         style="line-height:7.05555534px;stroke-width:0.26458332">Glass :</tspan><tspan
         sodipodi:role="line"
         x="152.99324"
         y="200.10474"
         style="line-height:7.05555534px;stroke-width:0.26458332"
         id="tspan416">3mm thick</tspan><tspan
         sodipodi:role="line"
         x="152.99324"
         y="207.16029"
         style="line-height:7.05555534px;stroke-width:0.26458332"
         id="tspan414">transparent PPMA</tspan></text>
    <text
       id="text424"
       y="107.00472"
       x="4.3129911"
       style="font-style:normal;font-variant:normal;font-weight:normal;font-stretch:normal;font-size:7.05555534px;line-height:7.05555534px;font-family:Calibri;-inkscape-font-specification:Calibri;text-align:start;letter-spacing:0px;word-spacing:0px;text-anchor:start;display:inline;stroke-width:0.26458332"
       xml:space="preserve"><tspan
         style="line-height:7.05555534px;stroke-width:0.26458332"
         y="107.00472"
         x="4.3129911"
         sodipodi:role="line"
         id="tspan430">front board : 3mm thick colored PPMA</tspan><tspan
         style="line-height:7.05555534px;stroke-width:0.26458332"
         y="114.06028"
         x="4.3129911"
         sodipodi:role="line"
         id="tspan496">opening is for LCD 1602</tspan><tspan
         style="line-height:7.05555534px;stroke-width:0.26458332"
         y="121.11583"
         x="4.3129911"
         sodipodi:role="line"
         id="tspan500">logo is for beauty</tspan></text>
    <text
       xml:space="preserve"
       style="font-style:normal;font-variant:normal;font-weight:normal;font-stretch:normal;font-size:7.05555534px;line-height:7.05555534px;font-family:Calibri;-inkscape-font-specification:Calibri;text-align:start;letter-spacing:0px;word-spacing:0px;text-anchor:start;display:inline;stroke-width:0.26458332"
       x="3.9737408"
       y="245.94955"
       id="text436"><tspan
         id="tspan434"
         sodipodi:role="line"
         x="3.9737408"
         y="245.94955"
         style="line-height:7.05555534px;stroke-width:0.26458332">side openings for PMS7003 </tspan><tspan
         sodipodi:role="line"
         x="3.9737408"
         y="253.00511"
         style="line-height:7.05555534px;stroke-width:0.26458332"
         id="tspan498">and BME280 : </tspan><tspan
         sodipodi:role="line"
         x="3.9737408"
         y="260.06067"
         style="line-height:7.05555534px;stroke-width:0.26458332"
         id="tspan438">3mm thick colored PPMA</tspan></text>
    <text
       xml:space="preserve"
       style="font-style:normal;font-variant:normal;font-weight:normal;font-stretch:normal;font-size:7.05555534px;line-height:7.05555534px;font-family:Calibri;-inkscape-font-specification:Calibri;text-align:start;letter-spacing:0px;word-spacing:0px;text-anchor:start;display:inline;stroke-width:0.26458332"
       x="101.90598"
       y="245.29089"
       id="text436-7"><tspan
         id="tspan434-1"
         sodipodi:role="line"
         x="101.90598"
         y="245.29089"
         style="line-height:7.05555534px;stroke-width:0.26458332">side openings for power supply : </tspan><tspan
         sodipodi:role="line"
         x="101.90598"
         y="252.34645"
         style="line-height:7.05555534px;stroke-width:0.26458332"
         id="tspan438-9">3mm thick colored PPMA</tspan><tspan
         sodipodi:role="line"
         x="101.90598"
         y="259.40201"
         style="line-height:7.05555534px;stroke-width:0.26458332"
         id="tspan494">nodeMCU can be inserted in it</tspan></text>
    <text
       transform="translate(0,-1.0833333e-6)"
       id="text465"
       y="234.82326"
       x="213.13982"
       style="font-style:normal;font-variant:normal;font-weight:normal;font-stretch:normal;font-size:7.05555534px;line-height:7.05555534px;font-family:Calibri;-inkscape-font-specification:Calibri;text-align:start;letter-spacing:0px;word-spacing:0px;text-anchor:start;display:inline;stroke-width:0.26458332"
       xml:space="preserve"><tspan
         style="line-height:7.05555534px;stroke-width:0.26458332"
         y="234.82326"
         x="213.13982"
         sodipodi:role="line"
         id="tspan461">piece to glue under PMS7003</tspan><tspan
         style="line-height:7.05555534px;stroke-width:0.26458332"
         y="241.87881"
         x="213.13982"
         sodipodi:role="line"
         id="tspan467">to match opening height : </tspan><tspan
         id="tspan463"
         style="line-height:7.05555534px;stroke-width:0.26458332"
         y="248.93437"
         x="213.13982"
         sodipodi:role="line">6mm thick PPMA</tspan></text>
  </g>
  <g
     inkscape:groupmode="layer"
     id="layer8"
     inkscape:label="junction_box_opening"
     style="display:none"
     transform="translate(0,-100)">
    <g
       id="g3508" />
    <g
       id="g1303" />
    <g
       id="g2174" />
    <g
       id="g3086" />
    <g
       id="g4040" />
    <g
       id="g5036" />
    <circle
       r="5"
       cy="8"
       cx="492"
       id="circle1828"
       style="opacity:1;fill:none;fill-opacity:1;fill-rule:evenodd;stroke:#ff0000;stroke-width:0.2;stroke-linecap:round;stroke-linejoin:round;stroke-miterlimit:4;stroke-dasharray:none;stroke-dashoffset:0;stroke-opacity:1" />
    <path
       style="display:inline;opacity:1;fill:none;fill-opacity:1;fill-rule:evenodd;stroke:#00fb00;stroke-width:0.19999997;stroke-linecap:round;stroke-linejoin:miter;stroke-miterlimit:4;stroke-dasharray:none;stroke-dashoffset:0;stroke-opacity:1;paint-order:stroke fill markers"
       d="m 9.0380565,106.99966 c -3.27044,0 -6.03787,2.76187 -6.03787,6.02547 v 100.94973 c 0,3.2636 2.76743,6.02495 6.03787,6.02495 H 109.96248 c 3.27043,0 6.03786,-2.76135 6.03786,-6.02495 V 113.02513 c 0,-3.2636 -2.76743,-6.02547 -6.03786,-6.02547 z"
       id="path5180"
       inkscape:connector-curvature="0"
       sodipodi:nodetypes="sssssssss" />
    <path
       inkscape:connector-curvature="0"
       id="path5184"
       d="m 10.025927,111.19664 -0.3534605,0.35346 -2.47479,2.47479 1.88206,1.88257 c -0.0349,0.19442 -0.0796,0.38501 -0.0796,0.59221 10e-6,1.92714 1.5734305,3.50055 3.5005605,3.50056 0.20722,0 0.3978,-0.0447 0.59221,-0.0796 l 1.88257,1.88257 2.82826,-2.82825 -1.88258,-1.88309 c 0.0348,-0.19435 0.0796,-0.38518 0.0796,-0.59221 -10e-6,-1.92704 -1.573,-3.50004 -3.50004,-3.50004 -0.20717,0 -0.39777,0.0447 -0.59221,0.0796 z m 98.949523,0 -0.35347,0.35346 -1.5291,1.52859 c -0.19443,-0.0349 -0.38502,-0.0796 -0.59222,-0.0796 -1.92713,1e-5 -3.50055,1.57343 -3.50056,3.50056 0,0.20723 0.0447,0.3978 0.0796,0.59222 l -1.88258,1.88257 2.82825,2.82825 1.88309,-1.88257 c 0.19435,0.0348 0.3852,0.0796 0.59221,0.0796 1.92705,-2e-5 3.50005,-1.57301 3.50005,-3.50005 0,-0.20717 -0.0447,-0.39777 -0.0796,-0.59221 l 1.88257,-1.88257 z m -93.999953,93.99994 -0.35346,0.35347 -1.52963,1.52911 c -0.19442,-0.0349 -0.38502,-0.0796 -0.59221,-0.0796 -1.92704,1e-5 -3.5000405,1.57301 -3.5000405,3.50005 0,0.20718 0.0447,0.39779 0.0796,0.59221 l -1.88258,1.88257 2.8282605,2.82825 1.88257,-1.88205 c 0.19443,0.0349 0.38501,0.0796 0.59221,0.0796 1.92714,-1e-5 3.50055,-1.57343 3.50056,-3.50056 0,-0.20721 -0.0447,-0.39778 -0.0796,-0.59221 l 1.88257,-1.88258 z m 89.049863,0 -0.35346,0.35347 -2.47479,2.47478 1.88258,1.88309 c -0.0348,0.19436 -0.0796,0.3852 -0.0796,0.59221 1e-5,1.92705 1.57301,3.50005 3.50005,3.50005 0.20717,0 0.39777,-0.0447 0.59221,-0.0796 l 1.88257,1.88257 2.82825,-2.82825 -1.88205,-1.88257 c 0.0349,-0.19443 0.0796,-0.38501 0.0796,-0.59222 -1e-5,-1.92713 -1.57343,-3.50055 -3.50056,-3.50056 -0.20723,0 -0.3978,0.0447 -0.59221,0.0796 z"
       style="display:inline;opacity:1;fill:none;fill-opacity:1;fill-rule:evenodd;stroke:#ff0000;stroke-width:0.19999996;stroke-linecap:round;stroke-linejoin:miter;stroke-miterlimit:4;stroke-dasharray:none;stroke-dashoffset:0;stroke-opacity:1;paint-order:stroke fill markers" />
    <rect
       style="display:inline;opacity:1;fill:none;fill-opacity:0.47959188;fill-rule:evenodd;stroke:#00ff00;stroke-width:0.1;stroke-linecap:round;stroke-linejoin:round;stroke-miterlimit:4;stroke-dasharray:none;stroke-dashoffset:0;stroke-opacity:1"
       id="rect5182"
       width="94"
       height="94"
       x="12.500418"
       y="116.49974" />
    <path
       style="display:inline;opacity:1;fill:none;fill-opacity:0.47959188;fill-rule:evenodd;stroke:#00ff00;stroke-width:0.2;stroke-linecap:round;stroke-linejoin:round;stroke-miterlimit:4;stroke-dasharray:none;stroke-dashoffset:0;stroke-opacity:1"
       d="m 12.500427,116.49973 h 94.000003 v 93.99999 H 12.500427 Z"
       id="path5212"
       inkscape:connector-curvature="0" />
    <path
       id="path5192"
       style="display:inline;opacity:1;fill:none;fill-opacity:0.47959188;fill-rule:evenodd;stroke:#ff0000;stroke-width:0.2;stroke-linecap:round;stroke-linejoin:round;stroke-miterlimit:4;stroke-dasharray:none;stroke-dashoffset:0;stroke-opacity:1"
       d="m 22.000437,131.39981 c 0.80001,0 1.60009,0.64007 1.60009,1.60009 0,0.8 -0.80008,1.59974 -1.60009,1.59974 -0.96001,0 -1.60008,-0.79974 -1.60008,-1.59974 0,-0.96002 0.64007,-1.60009 1.60008,-1.60009 z m 75.00008,0 c 0.8,0 1.60008,0.64007 1.60008,1.60009 0,0.8 -0.80008,1.59974 -1.60008,1.59974 -0.96,0 -1.60009,-0.79974 -1.60009,-1.59974 0,-0.96002 0.64009,-1.60009 1.60009,-1.60009 z m -75.00008,31.00018 c 0.80001,0 1.60009,0.63974 1.60009,1.59974 0,0.80002 -0.80008,1.60008 -1.60009,1.60008 -0.96001,0 -1.60008,-0.80006 -1.60008,-1.60008 0,-0.96 0.64007,-1.59974 1.60008,-1.59974 z m 75.00008,0 c 0.8,0 1.60008,0.63974 1.60008,1.59974 0,0.80002 -0.80008,1.60008 -1.60008,1.60008 -0.96,0 -1.60009,-0.80006 -1.60009,-1.60008 0,-0.96 0.64009,-1.59974 1.60009,-1.59974 z M 26.500387,136.9999 h 65.99959 c 1.108,0 2.00039,0.89239 2.00039,2.00039 v 18.99936 c 0,1.108 -0.89239,1.99987 -2.00039,1.99987 h -65.99959 c -1.108,0 -1.99988,-0.89187 -1.99988,-1.99987 v -18.99936 c 0,-1.108 0.89188,-2.00039 1.99988,-2.00039 z"
       inkscape:connector-curvature="0" />
  </g>
  <defs
     id="defs3738">
    <marker
       style="overflow:visible"
       refY="-1.687441"
       refX="-4"
       orient="auto"
       id="CheckToolsAndOPMarker">
      <path
         id="path3735"
         style="fill:#000044;fill-rule:evenodd;stroke:none"
         d="m -4.588864,-1.687441 v 0 L -9.177728,0 c 0.73311,-0.996261 0.728882,-2.359329 0,-3.374882"
         inkscape:connector-curvature="0" />
    </marker>
  </defs>
  <defs
     id="defs3743">
    <marker
       style="overflow:visible"
       refY="-1.687441"
       refX="-4"
       orient="auto"
       id="DrawCurveMarker">
      <path
         id="path3740"
         style="fill:#000044;fill-rule:evenodd;stroke:none"
         d="m -4.588864,-1.687441 v 0 L -9.177728,0 c 0.73311,-0.996261 0.728882,-2.359329 0,-3.374882"
         inkscape:connector-curvature="0" />
    </marker>
  </defs>
  <defs
     id="defs3748">
    <marker
       style="overflow:visible"
       refY="-1.687441"
       refX="4"
       orient="auto"
       id="DrawCurveMarker_r">
      <path
         id="path3745"
         style="fill:#000044;fill-rule:evenodd;stroke:none"
         d="m 4.588864,-1.687441 v 0 L 9.177728,0 c -0.73311,-0.996261 -0.728882,-2.359329 0,-3.374882"
         inkscape:connector-curvature="0" />
    </marker>
  </defs>
  <defs
     id="defs3753">
    <marker
       style="overflow:visible"
       refY="-1.687441"
       refX="-4"
       orient="auto"
       id="InOutPathMarker">
      <path
         id="path3750"
         style="fill:#0072a7;fill-rule:evenodd;stroke:none"
         d="m -4.588864,-1.687441 v 0 L -9.177728,0 c 0.73311,-0.996261 0.728882,-2.359329 0,-3.374882"
         inkscape:connector-curvature="0" />
    </marker>
  </defs>
</svg>
